# xmcd
#
# Track frame offsets:
#	182
#	16627
#	29977
#	45370
#	58870
#	78282
#	91695
#	112040
#	120977
#	136595
#	145382
#	156520
#	170240
#	184170
#	195747
#
# Disc length: 2790 seconds
#
# Revision: 1
# Processed by: cddbd v1.5.2PL0 Copyright (c) Steve Scherf et al.
# Submitted via: audiograbber 1.83.01
#
DISCID=c90ae40f
DTITLE=AA.VV. - 062 - Vomero di una volta
DYEAR=1994
DGENRE=Folk
TTITLE0=S.Bruni - 'A nuvena
TTITLE1=P.Lamara - 'A retirata
TTITLE2=F.Ricci - Lo 'ntuppo
TTITLE3=S.Bruni - 'O ritratto 'e Nanninella
TTITLE4=S.Bruni - 'A vita mia
TTITLE5=F.Ricci - 'O mare canta
TTITLE6=A.Martino - Canzona amirosa
TTITLE7=F.Ricci - Il carrettiere del Vomero
TTITLE8=N.Taranto - Quagliarulo se ne va
TTITLE9=R.Murolo - Canto delle lavandaie del Vomeroo
TTITLE10=N.Taranto - Nirutè
TTITLE11=F.Ricci - Affaccete
TTITLE12=P.Lamara - Ciccuzza
TTITLE13=N.Taranto - Ah Matalena
TTITLE14=R.Murolo - La nova gelosia
EXTD=
EXTT0=
EXTT1=
EXTT2=
EXTT3=
EXTT4=
EXTT5=
EXTT6=
EXTT7=
EXTT8=
EXTT9=
EXTT10=
EXTT11=
EXTT12=
EXTT13=
EXTT14=
PLAYORDER=
